<?xml version="1.0" encoding="UTF-8"?>
<svg id="Layer_2" data-name="Layer 2" xmlns="http://www.w3.org/2000/svg" viewBox="0 0 216.36 66.86">
  <defs>
    <style>
      .cls-1 {
        fill: #003274;
      }
    </style>
  </defs>
  <g id="Layer_1-2" data-name="Layer 1">
    <path class="cls-1" d="M59.85,6.99C66.46,1.87,74.76-.59,83.1.12c8.34.71,16.11,4.52,21.77,10.68,5.32,5.79,8.42,13.26,8.77,21.08h-13.92c-.34-4.34-2.12-8.46-5.08-11.68-3.31-3.6-7.84-5.82-12.71-6.23-4.87-.41-9.71,1.02-13.58,4.01-3.86,2.99-6.46,7.32-7.28,12.14-.82,4.82.2,9.77,2.85,13.87,2.65,4.1,6.75,7.05,11.48,8.28,4.73,1.22,9.75.62,14.06-1.68,2.6-1.39,4.82-3.33,6.54-5.67,1.6,5.09,6.9,8.12,12.15,6.83,0,0,.02,0,.02,0-3.04,4.63-7.21,8.46-12.17,11.11-7.38,3.94-15.98,4.96-24.08,2.87-8.1-2.09-15.12-7.16-19.67-14.18-.91-1.4-1.7-2.86-2.38-4.37-1.06,4.64-3.41,8.9-6.78,12.27-3.54,3.54-8.05,5.95-12.97,6.93-4.91.98-10.01.48-14.63-1.44-4.63-1.92-8.58-5.16-11.37-9.33-1.13-1.7-2.05-3.52-2.74-5.42,2.31,1.58,5.26,2.21,8.2,1.49,2.66-.66,4.81-2.3,6.16-4.44.09.14.18.29.27.43,1.21,1.81,2.93,3.23,4.95,4.06,2.02.83,4.23,1.05,6.37.63,2.14-.43,4.1-1.48,5.65-3.02,1.54-1.54,2.59-3.51,3.02-5.65.43-2.14.21-4.36-.63-6.37-.83-2.01-2.25-3.74-4.06-4.95-1.72-1.15-3.71-1.85-6.2-1.85h-4.37c0-2.61,1.15-5.96,2.37-8.76,1.65-3.8,4.62-6.83,4.65-6.86H5.29V.73h45.22v14.16c-.05,0-2.81-.32-6.16.88-4.11,1.48-5.5,4.36-5.52,4.42,3.28,2.19,6.42,5.39,8.36,8.8.05-.4.12-.81.18-1.21,1.41-8.25,5.86-15.67,12.47-20.79ZM151.59,58.02h1.16v3.95h-1.75l-.11-2.32h-6.08l-.11,2.32h-1.77v-3.95h.95c.21-.54.37-1.27.46-2.2.11-.93.18-1.96.21-3.09.04-.93.05-1.9.05-2.9v-2.97h6.97v11.15ZM163.44,58.02h3.11v-11.15h1.98v11.15h3.11v-11.15h1.98v11.15h1.16v3.95h-1.75l-.13-2.32h-11.45v-12.78h1.98v11.15ZM139.74,53.86l1.95-6.99h1.91l-3.05,9.92c-.14.44-.3.85-.46,1.22-.17.37-.36.68-.59.95-.23.26-.49.46-.8.61-.31.14-.67.21-1.09.21-.29,0-.51-.02-.66-.07-.14-.04-.23-.06-.25-.07v-1.73s.11.04.23.07c.13.04.33.05.61.05.34,0,.62-.11.82-.34.2-.23.38-.53.52-.91l-3.23-9.9h2.11l2,6.99ZM156.8,53.86l1.95-6.99h1.91l-3.06,9.92c-.14.44-.3.85-.46,1.22-.17.37-.36.68-.59.95-.23.26-.49.46-.8.61-.31.14-.67.21-1.09.21-.29,0-.51-.02-.66-.07-.14-.04-.23-.06-.25-.07v-1.73s.11.04.23.07c.13.04.33.05.61.05.35,0,.62-.11.82-.34.2-.23.37-.53.52-.91l-3.23-9.9h2.11l2,6.99ZM134.87,48.46h-4.29v3.27h1.16c1.21,0,2.14.29,2.77.88.63.58.95,1.47.95,2.64v.93c0,1.23-.33,2.11-.98,2.66-.64.54-1.55.8-2.72.8h-3.16v-12.78h6.27v1.59ZM181.62,48.46h-3.95v3.7h3.22v1.54h-3.22v4.36h4.2v1.59h-6.22v-12.78h5.97v1.59ZM188.98,48.46h-3.95v3.7h3.22v1.54h-3.22v4.36h4.2v1.59h-6.22v-12.78h5.97v1.59ZM130.59,58.11h1.16c.57,0,1.01-.14,1.3-.43.31-.29.46-.8.46-1.54v-.86c0-.7-.15-1.22-.45-1.54-.29-.32-.73-.48-1.32-.48h-1.16v4.84ZM146.5,48.5c0,.83-.01,1.64-.04,2.43-.01.79-.03,1.54-.05,2.25-.04,1.05-.1,2-.2,2.84-.08.83-.21,1.5-.38,2h3.77v-9.52h-3.11ZM98.81,39.98c1.02-3.81,4.94-6.07,8.75-5.05,3.81,1.02,6.07,4.94,5.05,8.75-1.02,3.81-4.94,6.07-8.75,5.05-3.81-1.02-6.07-4.94-5.05-8.75ZM5.43,34.85c3.83-.94,7.7,1.39,8.65,5.22.95,3.83-1.39,7.7-5.22,8.65-3.83.95-7.7-1.39-8.65-5.22-.94-3.83,1.39-7.7,5.22-8.65ZM216.36,38.32l-1.79,3.48-1.12-.41,1.12-3.68,1.79.61ZM164.83,27.02c.62,0,1.19.1,1.7.29.51.19.95.47,1.3.84.37.36.65.8.84,1.34.2.54.3,1.15.3,1.84v4.41c0,1.41-.37,2.49-1.11,3.25-.74.76-1.75,1.14-3.02,1.14-.64,0-1.22-.09-1.73-.29-.51-.2-.95-.49-1.32-.86-.36-.37-.64-.82-.84-1.36-.19-.54-.29-1.15-.29-1.84v-4.43c0-.69.1-1.3.3-1.84.2-.55.48-1.01.84-1.38.37-.37.81-.65,1.32-.84.51-.19,1.08-.29,1.7-.29ZM183.28,27.02c.62,0,1.19.1,1.7.29.51.19.95.47,1.3.84.37.36.65.8.84,1.34.2.54.3,1.15.3,1.84v4.41c0,1.41-.37,2.49-1.11,3.25-.74.76-1.74,1.14-3.02,1.14-.64,0-1.22-.09-1.73-.29-.51-.2-.95-.49-1.32-.86-.36-.37-.64-.82-.84-1.36-.19-.54-.29-1.15-.29-1.84v-4.43c0-.69.1-1.3.3-1.84.2-.55.48-1.01.84-1.38.37-.37.81-.65,1.32-.84.51-.19,1.08-.29,1.7-.29ZM177.67,39.96h-1.98v-11.15h-2.98c0,.07,0,.3-.02.68,0,.38,0,.88-.02,1.48,0,.6,0,1.28-.02,2.06-.01.76-.03,1.56-.05,2.39-.02.74-.08,1.4-.18,1.98-.08.57-.23,1.06-.43,1.46-.2.4-.48.71-.84.93-.34.2-.79.3-1.34.3-.13,0-.24,0-.34-.02-.1-.01-.17-.03-.23-.05-.07-.02-.14-.05-.2-.07v-1.77s.08.02.14.04c.12.02.26.04.43.04.38,0,.65-.24.82-.73.17-.5.26-1.23.29-2.2.02-.87.04-1.76.05-2.66.01-.92.02-1.76.02-2.52.01-.77.02-1.43.02-1.97v-1h6.86v12.78ZM134.98,28.78h-2.48l-.02,11.19h-2v-11.19h-2.47v-1.59h6.97v1.59ZM141.89,28.78h-3.95v3.7h3.22v1.54h-3.22v4.36h4.2v1.59h-6.22v-12.78h5.97v1.59ZM146.8,31.81l1.75-4.63h2.02l-2.48,6.13,2.72,6.65h-2.2l-2.02-5.16-1.97,5.16h-2.04l2.75-6.61-2.59-6.16h2.22l1.84,4.63ZM153.77,32.67h3.48v-5.49h2v12.78h-2v-5.65h-3.48v5.65h-2.02v-12.78h2.02v5.49ZM194.55,28.78h-3.75v11.19h-1.98v-12.78h5.73v1.59ZM197.63,36.33l3.61-9.15h2.06v12.78h-1.97v-9.18l-3.61,9.18h-2.07v-12.78h1.98v9.15ZM206.85,36.33l3.61-9.15h2.05v12.78h-1.97v-9.18l-3.61,9.18h-2.07v-12.78h1.98v9.15ZM164.83,28.63c-.71,0-1.24.23-1.59.7-.33.46-.5,1.14-.5,2.02v4.43c0,.89.17,1.57.5,2.04.34.46.87.7,1.59.7s1.22-.24,1.55-.72c.35-.49.52-1.16.52-2.02v-4.41c0-.85-.17-1.51-.52-2-.33-.49-.85-.73-1.55-.73ZM183.28,28.63c-.71,0-1.24.23-1.59.7-.33.46-.5,1.14-.5,2.02v4.43c0,.89.17,1.57.5,2.04.35.46.87.7,1.59.7s1.22-.24,1.56-.72c.34-.49.52-1.16.52-2.02v-4.41c0-.85-.17-1.51-.52-2-.33-.49-.85-.73-1.56-.73ZM197.63,18.65h1.16v3.95h-1.75l-.11-2.32h-6.07l-.11,2.32h-1.77v-3.95h.95c.21-.54.37-1.27.46-2.2.11-.93.18-1.96.21-3.09.04-.93.05-1.89.05-2.9v-2.97h6.97v11.15ZM211.14,18.63l-1.79,3.48-1.13-.41,1.13-3.68,1.79.61ZM147.72,7.34c1.24,0,2.2.38,2.89,1.14.69.76,1.04,1.84,1.04,3.23v4.36c0,1.39-.35,2.47-1.05,3.23-.7.76-1.7,1.14-3,1.14-.56,0-1.07-.07-1.54-.21-.45-.15-.85-.39-1.2-.7-.33-.31-.6-.71-.8-1.2-.19-.5-.29-1.1-.3-1.8h1.88c.02.83.21,1.43.57,1.79.37.35.83.52,1.39.52.71,0,1.23-.23,1.54-.7.32-.48.48-1.17.48-2.07v-1.45h-3.52v-1.63h3.52v-1.32c0-1.83-.64-2.75-1.93-2.75-.59,0-1.04.16-1.34.48-.3.31-.48.85-.54,1.63h-1.97c.04-.66.16-1.22.36-1.68.2-.48.47-.86.8-1.16.35-.3.75-.51,1.2-.64.46-.14.97-.21,1.52-.21ZM184.68,7.34c1.21,0,2.17.37,2.88,1.11.71.74,1.07,1.81,1.07,3.2v4.43c0,1.39-.35,2.47-1.06,3.23-.7.76-1.66,1.14-2.88,1.14s-2.2-.38-2.91-1.13c-.71-.76-1.07-1.83-1.07-3.2v-1.5h-1.45v5.65h-1.98V7.5h1.98v5.5h1.45v-1.34c0-.69.1-1.3.29-1.84.19-.54.46-.99.8-1.36.36-.37.77-.65,1.25-.84.49-.19,1.03-.29,1.63-.29ZM160.38,20.28h-1.98v-11.15h-2.98c0,.07,0,.3-.02.68,0,.38,0,.88-.02,1.48,0,.6,0,1.28-.02,2.06-.01.76-.03,1.56-.05,2.39-.02.74-.08,1.4-.18,1.98-.08.57-.23,1.06-.43,1.46-.2.4-.48.71-.84.93-.34.2-.79.3-1.34.3-.13,0-.25,0-.34-.02-.1-.01-.17-.03-.23-.05-.07-.02-.14-.05-.2-.07v-1.77s.08.02.14.04c.12.02.26.04.43.04.38,0,.66-.24.82-.73.17-.5.26-1.23.29-2.2.02-.87.04-1.76.05-2.66.01-.92.02-1.76.02-2.52.01-.77.02-1.43.02-1.96v-1h6.86v12.78ZM175.69,20.28h-1.98v-11.15h-2.98c0,.07,0,.3-.02.68,0,.38,0,.88-.02,1.48,0,.6,0,1.28-.02,2.06-.01.76-.03,1.56-.05,2.39-.02.74-.08,1.4-.18,1.98-.08.57-.23,1.06-.43,1.46-.2.4-.48.71-.84.93-.34.2-.79.3-1.34.3-.13,0-.24,0-.34-.02-.1-.01-.17-.03-.23-.05-.07-.02-.14-.05-.2-.07v-1.77s.08.02.14.04c.12.02.26.04.43.04.38,0,.66-.24.82-.73.17-.5.26-1.23.29-2.2.02-.87.04-1.76.05-2.66.01-.92.02-1.76.02-2.52.01-.77.02-1.43.02-1.96v-1h6.86v12.78ZM163,18.04c.33,0,.61.11.84.34.24.21.36.49.36.84,0,.32-.12.6-.36.82-.23.23-.51.34-.84.34-.32,0-.6-.11-.84-.34-.23-.23-.34-.5-.34-.82,0-.35.11-.63.34-.84.24-.23.52-.34.84-.34ZM134.98,9.09h-2.48l-.02,11.19h-2v-11.19h-2.47v-1.59h6.97v1.59ZM139.1,7.5c1.12,0,2,.23,2.63.7.64.46.96,1.23.96,2.29v.57c0,.68-.17,1.22-.52,1.63-.34.4-.83.69-1.45.86.73.14,1.3.43,1.72.88.42.44.63,1.11.63,2.02v.43c0,1.18-.32,2.04-.97,2.59-.64.55-1.57.82-2.79.82h-3.4V7.5h3.18ZM201.63,16.65l3.61-9.15h2.05v12.78h-1.97v-9.18l-3.61,9.18h-2.07V7.5h1.98v9.15ZM184.68,8.93c-.66,0-1.14.23-1.47.7-.31.46-.46,1.14-.46,2.04v4.45c0,.89.16,1.57.46,2.04.32.46.81.7,1.47.7.64,0,1.12-.24,1.43-.72.32-.49.48-1.16.48-2.02v-4.45c0-.85-.16-1.51-.48-2-.31-.49-.78-.73-1.43-.73ZM137.91,18.79h1.25c.63,0,1.11-.15,1.43-.46.33-.31.5-.82.5-1.54v-.52c0-.76-.16-1.28-.48-1.55-.31-.27-.82-.41-1.52-.41h-1.18v4.48ZM192.53,9.13c0,.83-.01,1.64-.04,2.43-.01.79-.03,1.54-.05,2.25-.04,1.05-.1,2-.2,2.84-.08.83-.21,1.5-.38,2h3.77v-9.52h-3.11ZM163,12.74c.33,0,.61.11.84.34.24.23.36.51.36.84s-.12.6-.36.82c-.23.23-.51.34-.84.34-.32,0-.6-.11-.84-.34-.23-.23-.34-.5-.34-.82s.11-.61.34-.84c.24-.23.52-.34.84-.34ZM137.91,12.88h1.07c.64,0,1.1-.14,1.38-.41.27-.27.41-.73.41-1.38v-.5c0-.66-.15-1.08-.46-1.29-.31-.21-.76-.32-1.36-.32h-1.04v3.89Z"/>
  </g>
</svg>