<?xml version="1.0" encoding="UTF-8"?>
<svg id="Layer_2" data-name="Layer 2" xmlns="http://www.w3.org/2000/svg" viewBox="0 0 113.41 66.52">
  <defs>
    <style>
      .cls-1 {
        fill: #fff;
        fill-rule: evenodd;
      }
    </style>
  </defs>
  <g id="Layer_1-2" data-name="Layer 1">
    <path class="cls-1" d="M59.54,6.95C66.12,1.86,74.38-.58,82.68.12c8.3.7,16.03,4.49,21.66,10.62,5.29,5.76,8.37,13.19,8.72,20.98h-13.85c-.34-4.32-2.11-8.41-5.05-11.62-3.29-3.58-7.8-5.79-12.64-6.2-4.84-.41-9.66,1.02-13.51,3.99-3.84,2.98-6.43,7.29-7.24,12.08-.82,4.79.2,9.71,2.84,13.79,2.64,4.08,6.72,7.02,11.42,8.24,3.44.89,7.04.81,10.4-.19-.34,1.5-.35,3.1.04,4.69.92,3.72,3.78,6.45,7.24,7.37-6.67,2.79-14.09,3.34-21.14,1.52-8.06-2.08-15.04-7.12-19.57-14.11-.9-1.39-1.69-2.85-2.37-4.34-1.05,4.62-3.39,8.85-6.75,12.21-3.52,3.52-8.01,5.92-12.9,6.9-4.89.97-9.95.47-14.56-1.43-4.6-1.91-8.54-5.14-11.31-9.28-1.13-1.69-2.04-3.5-2.73-5.39,2.3,1.58,5.24,2.2,8.16,1.48,2.64-.65,4.78-2.29,6.13-4.42.09.14.18.29.27.43,1.21,1.8,2.92,3.21,4.92,4.04,2,.83,4.21,1.05,6.34.62,2.13-.42,4.08-1.47,5.62-3,1.53-1.53,2.58-3.49,3-5.62.42-2.13.21-4.34-.62-6.34-.83-2-2.24-3.72-4.04-4.92-1.72-1.15-3.7-1.84-6.17-1.84h-4.35c0-2.6,1.14-5.93,2.36-8.71,1.64-3.78,4.6-6.8,4.62-6.82H5.27V.73h44.99v14.08s-2.78-.32-6.12.88c-4.1,1.48-5.48,4.36-5.5,4.4,3.27,2.18,6.38,5.36,8.31,8.75.05-.4.11-.8.18-1.21,1.4-8.21,5.83-15.59,12.41-20.69ZM88.53,52.39c1.02-3.79,4.91-6.04,8.7-5.02,3.79,1.02,6.04,4.91,5.02,8.7-1.02,3.79-4.91,6.04-8.7,5.02-3.79-1.02-6.04-4.91-5.02-8.7ZM5.4,34.67c3.81-.94,7.66,1.39,8.6,5.2.94,3.81-1.39,7.66-5.2,8.6-3.81.94-7.66-1.39-8.6-5.2-.94-3.81,1.39-7.66,5.2-8.6ZM100.86,45.02h-1.63v-9.19h-2.46c0,.06,0,.25-.01.56,0,.31,0,.72-.01,1.22,0,.49,0,1.06-.02,1.69,0,.63-.02,1.29-.04,1.97-.02.61-.07,1.15-.15,1.63-.07.47-.19.87-.35,1.21-.17.33-.4.59-.69.77-.28.17-.65.25-1.1.25-.11,0-.2,0-.28-.01-.08,0-.14-.03-.19-.05-.06-.02-.11-.04-.16-.06v-1.46s.07.02.12.03c.1.02.22.03.35.03.31,0,.54-.2.68-.6.14-.41.22-1.02.24-1.81.02-.72.04-1.45.05-2.19,0-.76.01-1.45.01-2.07,0-.64.01-1.18.01-1.62v-.82h5.65v10.53ZM107.08,35.8h-3.25v3.05h2.65v1.27h-2.65v3.59h3.46v1.31h-5.12v-10.53h4.92v1.31ZM113.41,35.8h-2.05l-.02,9.22h-1.65v-9.22h-2.03v-1.31h5.74v1.31Z"/>
  </g>
</svg>