<?xml version="1.0" encoding="UTF-8"?>
<svg id="Layer_2" data-name="Layer 2" xmlns="http://www.w3.org/2000/svg" viewBox="0 0 114.6 100.7">
  <defs>
    <style>
      .cls-1 {
        fill: #003274;
      }
    </style>
  </defs>
  <g id="Layer_1-2" data-name="Layer 1">
    <path class="cls-1" d="M86.32,97.73h.87v2.97h-1.32l-.08-1.75h-4.57l-.08,1.75h-1.33v-2.97h.71c.16-.4.28-.95.35-1.65.08-.7.13-1.47.16-2.32.03-.7.04-1.42.04-2.18v-2.23h5.24v8.38ZM95.22,97.73h2.34v-8.38h1.49v8.38h2.34v-8.38h1.49v8.38h.87v2.97h-1.32l-.09-1.75h-8.61v-9.6h1.49v8.38ZM66.39,97.72l-1.34,2.62-.85-.31.85-2.77,1.34.46ZM27.67,89.23c.47,0,.89.07,1.27.21.38.14.71.35.98.63.28.27.49.6.63,1.01.15.4.23.86.23,1.38v3.32c0,1.06-.28,1.87-.83,2.44-.56.57-1.31.86-2.27.86-.48,0-.92-.07-1.3-.21-.38-.15-.72-.37-.99-.64-.27-.28-.48-.62-.63-1.02-.14-.4-.21-.86-.21-1.38v-3.33c0-.52.08-.98.23-1.38.15-.41.36-.76.63-1.03.28-.28.61-.49.99-.63.38-.14.81-.21,1.28-.21ZM41.53,89.23c.47,0,.89.07,1.28.21.38.14.71.35.98.63.28.27.49.6.63,1.01.15.4.23.86.23,1.38v3.32c0,1.06-.28,1.87-.83,2.44-.56.57-1.31.86-2.27.86-.48,0-.92-.07-1.3-.21-.38-.15-.72-.37-.99-.64-.27-.28-.48-.62-.63-1.02-.14-.4-.21-.86-.21-1.38v-3.33c0-.52.08-.98.23-1.38.15-.41.36-.76.63-1.03.28-.28.61-.49.99-.63.38-.14.81-.21,1.27-.21ZM37.32,98.95h-1.49v-8.38h-2.24c0,.05,0,.22-.01.51,0,.29,0,.66-.01,1.11,0,.45,0,.96-.01,1.54,0,.57-.02,1.17-.04,1.8-.02.55-.06,1.05-.13,1.49-.06.43-.17.8-.32,1.1-.15.3-.36.54-.63.7-.26.15-.6.23-1.01.23-.1,0-.18,0-.25-.01s-.13-.02-.18-.04c-.05-.02-.1-.04-.15-.05v-1.33s.06.02.11.03c.09.02.2.03.32.03.29,0,.49-.18.62-.55.13-.38.2-.93.21-1.65.02-.65.03-1.32.04-2,0-.69.01-1.32.01-1.89,0-.58.01-1.07.01-1.48v-.75h5.16v9.6ZM77.41,94.6l1.46-5.25h1.44l-2.3,7.45c-.11.33-.22.63-.35.91-.13.28-.27.52-.44.71-.17.2-.37.35-.6.46s-.51.16-.82.16c-.21,0-.38-.02-.5-.05-.11-.03-.17-.04-.19-.05v-1.3s.08.03.17.05c.1.03.25.04.46.04.26,0,.47-.09.62-.26.15-.17.28-.4.39-.68l-2.43-7.44h1.59l1.5,5.25ZM90.23,94.6l1.46-5.25h1.44l-2.3,7.45c-.11.33-.22.64-.35.91-.13.28-.27.52-.44.71-.17.2-.37.35-.6.46-.23.11-.51.16-.82.16-.21,0-.38-.02-.5-.05-.11-.03-.17-.04-.19-.05v-1.3s.09.03.18.05c.1.03.25.04.46.04.26,0,.47-.09.62-.26.15-.17.28-.4.39-.68l-2.43-7.44h1.58l1.5,5.25ZM5.24,90.55h-1.87v8.41h-1.52v-8.41H0v-1.19h5.24v1.19ZM10.43,90.55h-2.97v2.78h2.42v1.16h-2.42v3.28h3.16v1.2h-4.67v-9.6h4.48v1.19ZM14.12,92.83l1.32-3.48h1.52l-1.87,4.61,2.04,5h-1.65l-1.52-3.88-1.48,3.88h-1.53l2.07-4.97-1.95-4.63h1.66l1.38,3.48ZM19.35,93.47h2.62v-4.12h1.5v9.6h-1.5v-4.24h-2.62v4.24h-1.52v-9.6h1.52v4.12ZM50,90.55h-2.82v8.41h-1.49v-9.6h4.31v1.19ZM52.32,96.23l2.71-6.87h1.55v9.6h-1.48v-6.9l-2.71,6.9h-1.56v-9.6h1.49v6.87ZM59.24,96.23l2.71-6.87h1.54v9.6h-1.48v-6.9l-2.71,6.9h-1.56v-9.6h1.49v6.87ZM73.75,90.55h-3.22v2.46h.87c.91,0,1.61.22,2.08.66.47.44.71,1.1.71,1.99v.7c0,.92-.25,1.59-.74,2-.48.4-1.16.6-2.04.6h-2.38v-9.6h4.71v1.19ZM108.88,90.55h-2.97v2.78h2.42v1.16h-2.42v3.28h3.16v1.2h-4.67v-9.6h4.48v1.19ZM114.41,90.55h-2.97v2.78h2.42v1.16h-2.42v3.28h3.16v1.2h-4.67v-9.6h4.48v1.19ZM27.67,90.44c-.54,0-.94.17-1.2.52-.25.35-.38.85-.38,1.52v3.33c0,.67.12,1.18.38,1.53.26.35.66.52,1.2.52.53,0,.92-.18,1.17-.54.26-.37.39-.87.39-1.52v-3.32c0-.64-.13-1.14-.39-1.5-.25-.37-.64-.55-1.17-.55ZM41.53,90.44c-.54,0-.93.17-1.19.52-.25.35-.38.85-.38,1.52v3.33c0,.67.13,1.18.38,1.53.26.35.66.52,1.19.52.53,0,.92-.18,1.17-.54.26-.37.39-.87.39-1.52v-3.32c0-.64-.13-1.14-.39-1.5-.25-.37-.64-.55-1.17-.55ZM70.53,97.8h.87c.43,0,.76-.11.98-.32.23-.21.35-.6.35-1.15v-.64c0-.53-.11-.91-.34-1.16-.21-.24-.55-.36-.99-.36h-.87v3.64ZM82.49,90.57c0,.63,0,1.24-.03,1.83,0,.59-.02,1.15-.04,1.69-.03.79-.08,1.5-.15,2.14-.06.63-.16,1.13-.28,1.5h2.83v-7.16h-2.34ZM78.32,83.7h.87v2.97h-1.32l-.08-1.75h-4.56l-.08,1.75h-1.33v-2.97h.71c.16-.4.28-.95.35-1.65.08-.7.13-1.47.16-2.32.03-.7.04-1.42.04-2.18v-2.23h5.24v8.38ZM88.47,83.68l-1.34,2.62-.85-.31.85-2.77,1.34.46ZM40.81,75.2c.93,0,1.66.29,2.18.86.52.57.78,1.38.78,2.43v3.28c0,1.05-.26,1.86-.79,2.43-.53.57-1.28.86-2.26.86-.42,0-.81-.05-1.16-.16-.34-.12-.64-.29-.9-.52-.25-.23-.45-.53-.6-.9-.14-.38-.22-.83-.23-1.36h1.41c.02.63.16,1.07.43,1.34.28.26.63.39,1.05.39.54,0,.92-.17,1.16-.52.24-.36.36-.88.36-1.56v-1.09h-2.65v-1.22h2.65v-.99c0-1.38-.48-2.07-1.45-2.07-.45,0-.78.12-1.01.36-.22.23-.36.64-.4,1.22h-1.48c.03-.49.12-.91.27-1.26.15-.36.35-.65.6-.87.26-.22.56-.38.9-.48.35-.11.73-.16,1.14-.16ZM68.59,75.2c.91,0,1.63.28,2.16.83.54.55.81,1.36.81,2.4v3.33c0,1.05-.26,1.86-.79,2.43-.53.57-1.25.86-2.16.86s-1.65-.28-2.19-.85c-.54-.57-.81-1.37-.81-2.4v-1.13h-1.09v4.24h-1.49v-9.6h1.49v4.14h1.09v-1.01c0-.52.07-.98.21-1.38.14-.4.34-.74.6-1.02.27-.28.58-.49.94-.63.37-.14.78-.21,1.22-.21ZM50.33,84.92h-1.49v-8.38h-2.24c0,.05,0,.22-.01.51,0,.29,0,.66-.01,1.11,0,.45,0,.96-.01,1.54,0,.57-.02,1.17-.04,1.8-.02.55-.06,1.05-.13,1.49-.06.43-.17.8-.32,1.1s-.36.54-.63.7c-.26.15-.6.23-1.01.23-.1,0-.18,0-.25-.01-.07,0-.13-.02-.17-.04-.05-.02-.1-.04-.15-.05v-1.33s.06.02.11.03c.09.02.2.03.32.03.29,0,.49-.18.62-.55.13-.38.2-.93.21-1.65.02-.65.03-1.32.04-2,0-.69.01-1.32.01-1.89,0-.58.01-1.07.01-1.48v-.75h5.16v9.6ZM61.83,84.92h-1.49v-8.38h-2.24c0,.05,0,.22-.01.51,0,.29,0,.66-.01,1.11,0,.45,0,.96-.01,1.54,0,.57-.02,1.17-.04,1.8-.02.55-.06,1.05-.13,1.49-.06.43-.17.8-.32,1.1-.15.3-.36.54-.63.7-.26.15-.6.23-1.01.23-.1,0-.18,0-.25-.01-.07,0-.13-.02-.17-.04-.05-.02-.1-.04-.15-.05v-1.33s.06.02.11.03c.09.02.2.03.32.03.29,0,.49-.18.62-.55.13-.38.2-.93.21-1.65.02-.65.03-1.32.04-2,0-.69.01-1.32.01-1.89,0-.58.01-1.07.01-1.48v-.75h5.16v9.6ZM52.3,83.24c.25,0,.46.08.63.25.18.16.27.37.27.63,0,.24-.09.45-.27.62-.17.17-.38.25-.63.25-.24,0-.45-.08-.63-.25-.17-.17-.25-.38-.25-.62,0-.26.08-.47.25-.63.18-.17.39-.25.63-.25ZM31.24,76.51h-1.87v8.4h-1.52v-8.4h-1.85v-1.2h5.24v1.2ZM34.34,75.32c.84,0,1.5.17,1.97.52.48.35.73.92.73,1.72v.43c0,.51-.13.92-.39,1.22-.26.3-.62.52-1.09.64.55.11.98.33,1.29.66.31.33.47.84.47,1.52v.32c0,.89-.24,1.53-.73,1.95s-1.18.62-2.09.62h-2.55v-9.6h2.39ZM81.33,82.19l2.71-6.88h1.54v9.6h-1.48v-6.9l-2.71,6.9h-1.56v-9.6h1.49v6.88ZM68.59,76.39c-.49,0-.86.17-1.1.52-.23.35-.35.86-.35,1.53v3.34c0,.67.12,1.18.35,1.53.24.35.61.52,1.1.52.48,0,.84-.18,1.07-.54.24-.37.36-.87.36-1.52v-3.34c0-.64-.12-1.14-.36-1.5-.23-.37-.59-.55-1.07-.55ZM33.44,83.8h.94c.47,0,.83-.12,1.07-.35.25-.23.38-.62.38-1.16v-.39c0-.57-.12-.96-.36-1.17-.23-.21-.61-.31-1.14-.31h-.89v3.37ZM74.49,76.54c0,.63,0,1.24-.03,1.83,0,.59-.02,1.15-.04,1.69-.03.79-.08,1.5-.15,2.14-.06.63-.16,1.13-.28,1.5h2.83v-7.16h-2.34ZM52.3,79.25c.25,0,.46.08.63.25.18.17.27.38.27.63,0,.24-.09.45-.27.62-.17.17-.38.25-.63.25-.24,0-.45-.08-.63-.25-.17-.17-.25-.38-.25-.62s.08-.46.25-.63c.18-.17.39-.25.63-.25ZM33.44,79.36h.81c.48,0,.83-.1,1.03-.31.21-.21.31-.55.31-1.03v-.38c0-.49-.12-.81-.35-.97-.23-.16-.57-.24-1.02-.24h-.78v2.93ZM61.05,6.94C67.61,1.85,75.85-.58,84.12.12c8.27.7,15.98,4.48,21.6,10.59,5.28,5.74,8.35,13.16,8.7,20.92h-13.81c-.33-4.3-2.1-8.39-5.04-11.59-3.28-3.57-7.78-5.77-12.61-6.18-4.83-.41-9.64,1.01-13.47,3.98-3.83,2.97-6.41,7.27-7.22,12.04-.81,4.78.2,9.69,2.83,13.76,2.63,4.07,6.7,7,11.39,8.21,4.69,1.21,9.67.62,13.95-1.66,2.58-1.38,4.79-3.31,6.49-5.62,1.59,5.05,6.85,8.06,12.06,6.77,0,0,.02,0,.02,0-3.02,4.59-7.16,8.39-12.08,11.02-7.32,3.91-15.85,4.92-23.89,2.85-8.04-2.08-15-7.1-19.52-14.07-.9-1.39-1.69-2.84-2.37-4.33-1.05,4.61-3.38,8.83-6.73,12.18-3.51,3.51-7.99,5.91-12.87,6.88-4.87.97-9.93.47-14.52-1.43-4.59-1.9-8.52-5.12-11.28-9.26-1.12-1.68-2.03-3.49-2.72-5.37,2.29,1.57,5.22,2.19,8.13,1.48,2.63-.65,4.77-2.28,6.11-4.41.09.14.18.28.27.42,1.2,1.8,2.91,3.2,4.91,4.03,2,.83,4.2,1.04,6.32.62,2.12-.42,4.07-1.46,5.6-3,1.53-1.53,2.57-3.48,2.99-5.6.42-2.12.21-4.32-.62-6.32-.83-2-2.23-3.71-4.03-4.91-1.71-1.14-3.69-1.84-6.16-1.84h-4.34c0-2.59,1.14-5.91,2.35-8.69,1.64-3.78,4.6-6.79,4.61-6.81H6.91V.73h44.87v14.05s-2.78-.32-6.11.88c-4.09,1.47-5.46,4.35-5.48,4.39,3.26,2.18,6.37,5.35,8.29,8.73.05-.4.11-.8.18-1.2,1.39-8.18,5.81-15.55,12.38-20.63ZM99.71,39.67c1.01-3.78,4.9-6.02,8.68-5.01,3.78,1.01,6.02,4.9,5.01,8.68-1.01,3.78-4.9,6.02-8.68,5.01-3.78-1.01-6.02-4.9-5.01-8.68ZM7.05,34.58c3.8-.94,7.64,1.38,8.58,5.18.94,3.8-1.38,7.64-5.18,8.58-3.8.94-7.64-1.38-8.58-5.18-.94-3.8,1.38-7.64,5.18-8.58Z"/>
  </g>
</svg>